<svg width="83" height="83" viewBox="0 0 83 83" fill="none" xmlns="http://www.w3.org/2000/svg">
<path d="M81.38 66.82C81.38 68.26 81.06 69.74 80.38 71.18C79.7 72.62 78.82 73.98 77.66 75.26C75.7 77.42 73.54 78.98 71.1 79.98C68.7 80.98 66.1 81.5 63.3 81.5C59.22 81.5 54.86 80.54 50.26 78.58C45.66 76.62 41.06 73.98 36.5 70.66C31.9 67.3 27.54 63.58 23.38 59.46C19.26 55.3 15.54 50.94 12.22 46.38C8.94 41.82 6.3 37.26 4.38 32.74C2.46 28.18 1.5 23.82 1.5 19.66C1.5 16.94 1.98 14.34 2.94 11.94C3.9 9.5 5.42 7.26 7.54 5.26C10.1 2.74 12.9 1.5 15.86 1.5C16.98 1.5 18.1 1.74 19.1 2.22C20.14 2.7 21.06 3.42 21.78 4.46L31.06 17.54C31.78 18.54 32.3 19.46 32.66 20.34C33.02 21.18 33.22 22.02 33.22 22.78C33.22 23.74 32.94 24.7 32.38 25.62C31.86 26.54 31.1 27.5 30.14 28.46L27.1 31.62C26.66 32.06 26.46 32.58 26.46 33.22C26.46 33.54 26.5 33.82 26.58 34.14C26.7 34.46 26.82 34.7 26.9 34.94C27.62 36.26 28.86 37.98 30.62 40.06C32.42 42.14 34.34 44.26 36.42 46.38C38.58 48.5 40.66 50.46 42.78 52.26C44.86 54.02 46.58 55.22 47.94 55.94C48.14 56.02 48.38 56.14 48.66 56.26C48.98 56.38 49.3 56.42 49.66 56.42C50.34 56.42 50.86 56.18 51.3 55.74L54.34 52.74C55.34 51.74 56.3 50.98 57.22 50.5C58.14 49.94 59.06 49.66 60.06 49.66C60.82 49.66 61.62 49.82 62.5 50.18C63.38 50.54 64.3 51.06 65.3 51.74L78.54 61.14C79.58 61.86 80.3 62.7 80.74 63.7C81.14 64.7 81.38 65.7 81.38 66.82Z" stroke="#C9A91D" stroke-width="1.5" stroke-miterlimit="10"/>
</svg>
